<svg xmlns="http://www.w3.org/2000/svg" version="1.1" viewBox="85.35 0 341.3 341.3"><rect width="512" height="341.3" y="0" fill="#FFF"/><rect width="512" height="113.8" y="0"/><rect width="512" height="113.8" y="227.6" fill="#428823"/><g><polygon fill="#D80027" points="256 170.7 0 341.3 0 0"/><path fill="#D80027" d="M309.1,170.7c0-22.9,13.1-42.1,34.6-46.8c-3.3-0.7-6.7-1.1-10.3-1.1c-26.4,0-47.9,21.4-47.9,47.9 s21.4,47.9,47.9,47.9c3.5,0,7-0.4,10.3-1.1C322.2,212.7,309.1,193.6,309.1,170.7z"/><polygon fill="#D80027" points="365 129.2 375.3 160.9 408.6 160.9 381.6 180.5 391.9 212.2 365 192.6 338 212.2 348.3 180.5 321.3 160.9 354.7 160.9"/></g></svg>