<svg xmlns="http://www.w3.org/2000/svg" version="1.1" viewBox="0 0 342 342"><rect width="342" height="342" x="0" fill="#FFF"/><g fill="#000"><rect width="23.4" height="15.6" x="238.7" y="215.2" transform="matrix(0.7071 -0.7071 0.7071 0.7071 -84.344 242.3636)"/><rect width="23.4" height="15.6" x="211.2" y="242.7" transform="matrix(0.7071 -0.7071 0.7071 0.7071 -111.8675 231.0089)"/><rect width="23.4" height="15.6" x="271.8" y="248.2" transform="matrix(0.7071 -0.7071 0.7071 0.7071 -98.0097 275.4712)"/><rect width="23.4" height="15.6" x="244.2" y="275.8" transform="matrix(0.7071 -0.7071 0.7071 0.7071 -125.5836 264.0074)"/><rect width="23.4" height="15.6" x="255.2" y="231.7" transform="matrix(0.7071 -0.7071 0.7071 0.7071 -91.1976 258.867)"/><rect width="23.4" height="15.6" x="227.7" y="259.3" transform="matrix(0.7071 -0.7071 0.7071 0.7071 -118.7256 247.5085)"/><rect width="15.6" height="62.3" x="245.4" y="56.9" transform="matrix(0.7071 -0.7071 0.7071 0.7071 11.9322 204.8196)"/><rect width="15.6" height="23.4" x="215.1" y="79.1" transform="matrix(0.7071 -0.7071 0.7071 0.7071 1.1122 184.1938)"/><rect width="15.6" height="23.4" x="242.6" y="106.6" transform="matrix(0.7071 -0.7071 0.7071 0.7071 -10.3145 211.6879)"/><rect width="15.6" height="23.4" x="248.1" y="46" transform="matrix(0.7071 -0.7071 0.7071 0.7071 34.1495 197.8311)"/><rect width="15.6" height="23.4" x="275.6" y="73.6" transform="matrix(0.7071 -0.7071 0.7071 0.7071 22.6842 225.4057)"/><rect width="15.6" height="62.3" x="63.5" y="238.7" transform="matrix(0.7071 -0.7071 0.7071 0.7071 -169.9343 129.4781)"/><rect width="15.6" height="23.4" x="93.8" y="255.4" transform="matrix(0.7071 -0.7071 0.7071 0.7071 -159.1095 150.0916)"/><rect width="15.6" height="23.4" x="66.3" y="227.8" transform="matrix(0.7071 -0.7071 0.7071 0.7071 -147.6547 122.5258)"/><rect width="15.6" height="62.3" x="96.6" y="205.6" transform="matrix(0.7071 -0.7071 0.7071 0.7071 -136.8372 143.1472)"/><rect width="62.3" height="15.6" x="40.2" y="63.7" transform="matrix(0.7071 -0.7071 0.7071 0.7071 -29.6489 71.3957)"/><rect width="62.3" height="15.6" x="56.7" y="80.2" transform="matrix(0.7071 -0.7071 0.7071 0.7071 -36.5029 87.8853)"/><rect width="62.3" height="15.6" x="73.2" y="96.8" transform="matrix(0.7071 -0.7071 0.7071 0.7071 -43.3906 104.4559)"/></g><circle cx="170.3" cy="170.7" r="62.3" fill="#D80027"/><path fill="#0052B4" d="M232.2,178.3c-9.6-25.4-44.3-25-61.8,1.3c-17.6,26.3-43.8,16.9-61.6,0.7c4.6,29.9,30.4,52.7,61.6,52.7	C202.2,233,228.4,209.1,232.2,178.3z"/></svg>