<svg xmlns="http://www.w3.org/2000/svg" version="1.1" viewBox="0 0 512 341.3"><rect width="512" height="341.3" y="0" fill="#FFF"/><g><rect width="512" height="42.7" y="42.7" fill="#D80027"/><rect width="512" height="42.7" y="128" fill="#D80027"/><rect width="512" height="42.7" y="213.3" fill="#D80027"/><rect width="512" height="42.7" y="298.7" fill="#D80027"/></g><rect width="256" height="170.7" y="0" fill="#0052B4"/><g><path fill="#FFDA44" d="M141.1,134.8c-28,0-45.9-24.8-45.9-49.5c0-24.8,17.9-49.5,45.9-49.5c8.7,0,18.1,1,25.3,4.9 c-11.2-11-26.6-17.8-43.6-17.8c-34.4,0-62.4,27.9-62.4,62.4s27.9,62.4,62.4,62.4c17,0,32.3-6.8,43.6-17.8 C159.3,133.8,149.9,134.8,141.1,134.8z"/><polygon fill="#FFDA44" points="171 49.7 180 68.5 200.3 63.8 191.2 82.6 207.6 95.5 187.2 100.1 187.3 121 171 107.9 154.8 121 154.8 100.1 134.5 95.5 150.8 82.6 141.7 63.8 162 68.5"/></g></svg>