<svg xmlns="http://www.w3.org/2000/svg" xmlns:svg="http://www.w3.org/2000/svg" id="Layer_1" data-name="Layer 1" version="1.1" viewBox="0 0 113.4 113.4"><metadata id="metadata11"/><title id="title2">algorand-algo-logo</title><rect style="fill:#fff;opacity:.3" id="rect13" width="113.4" height="113.4" x="0" y="0" rx="10"/><polygon id="polygon4" points="36 85 52.4 56.7 68.7 28.3 71.4 23.8 72.6 28.3 77.6 47 72 56.7 55.6 85 39.3 113.4 58.9 113.4 75.3 85 83.8 70.3 87.8 85 95.4 113.4 113 113.4 105.4 85 97.8 56.7 95.8 49.4 108 28.3 90.2 28.3 89.6 26.2 83.4 3 82.6 0 65.5 0 65.1 .6 49.1 28.3 32.7 56.7 16.4 85 0 113.4 19.6 113.4" transform="matrix(0.93827434,0,0,0.93827434,3.4875,3.4998452)"/></svg>